HIERARCHY
ROOT hip
{
  OFFSET 0 0 0
  CHANNELS 6 Xposition Yposition Zposition Zrotation Yrotation Xrotation
  JOINT abdomen
  {
    OFFSET 0 20.6881 -0.73152
    CHANNELS 3 Zrotation Xrotation Yrotation
    JOINT chest
    {
      OFFSET 0 11.7043 -0.48768
      CHANNELS 3 Zrotation Xrotation Yrotation
      JOINT neck
      {
        OFFSET 0 22.1894 -2.19456
        CHANNELS 3 Zrotation Xrotation Yrotation
        JOINT head
        {
          OFFSET -0.24384 7.07133 1.2192
          CHANNELS 3 Zrotation Xrotation Yrotation
          JOINT leftEye
          {
            OFFSET 4.14528 8.04674 8.04672
            CHANNELS 3 Zrotation Xrotation Yrotation
            End Site
            {
              OFFSET 1 0 0
            }
          }
          JOINT rightEye
          {
            OFFSET -3.6576 8.04674 8.04672
            CHANNELS 3 Zrotation Xrotation Yrotation
            End Site
            {
              OFFSET 1 0 0
            }
          }
        }
      }
      JOINT rCollar
      {
        OFFSET -2.68224 19.2634 -4.8768
        CHANNELS 3 Zrotation Xrotation Yrotation
        JOINT rShldr
        {
          OFFSET -8.77824 -1.95073 1.46304
          CHANNELS 3 Zrotation Xrotation Yrotation
          JOINT rForeArm
          {
            OFFSET -28.1742 -1.7115 0.48768
            CHANNELS 3 Zrotation Xrotation Yrotation
            JOINT rHand
            {
              OFFSET -22.5879 0.773209 7.07136
              CHANNELS 3 Zrotation Xrotation Yrotation
              JOINT rThumb1
              {
                OFFSET -1.2192 -0.487915 3.41376
                CHANNELS 3 Zrotation Xrotation Yrotation
                JOINT rThumb2
                {
                  OFFSET -3.37035 -0.52449 3.41376
                  CHANNELS 3 Zrotation Xrotation Yrotation
                  End Site
                  {
                    OFFSET -1.78271 -1.18214 1.43049
                  }
                }
              }
              JOINT rIndex1
              {
                OFFSET -7.75947 0.938293 5.60832
                CHANNELS 3 Zrotation Xrotation Yrotation
                JOINT rIndex2
                {
                  OFFSET -2.54057 -0.884171 1.56538
                  CHANNELS 3 Zrotation Xrotation Yrotation
                  End Site
                  {
                    OFFSET -1.62519 -0.234802 1.16502
                  }
                }
              }
              JOINT rMid1
              {
                OFFSET -8.24714 1.18213 3.41376
                CHANNELS 3 Zrotation Xrotation Yrotation
                JOINT rMid2
                {
                  OFFSET -3.10165 -0.590103 1.0647
                  CHANNELS 3 Zrotation Xrotation Yrotation
                  End Site
                  {
                    OFFSET -2.48547 -0.328903 0.83742
                  }
                }
              }
              JOINT rRing1
              {
                OFFSET -8.82822 0.546677 1.51678
                CHANNELS 3 Zrotation Xrotation Yrotation
                JOINT rRing2
                {
                  OFFSET -2.60934 -0.819778 -0.0198488
                  CHANNELS 3 Zrotation Xrotation Yrotation
                  End Site
                  {
                    OFFSET -2.33842 -0.294052 0.168128
                  }
                }
              }
              JOINT rPinky1
              {
                OFFSET -8.27202 -0.0477905 -0.4584
                CHANNELS 3 Zrotation Xrotation Yrotation
                JOINT rPinky2
                {
                  OFFSET -1.82734 -0.647385 -0.700984
                  CHANNELS 3 Zrotation Xrotation Yrotation
                  End Site
                  {
                    OFFSET -1.69225 -0.51767 -0.607171
                  }
                }
              }
            }
          }
        }
      }
      JOINT lCollar
      {
        OFFSET 2.68224 19.2634 -4.8768
        CHANNELS 3 Zrotation Xrotation Yrotation
        JOINT lShldr
        {
          OFFSET 8.77824 -1.95073 1.46304
          CHANNELS 3 Zrotation Xrotation Yrotation
          JOINT lForeArm
          {
            OFFSET 28.1742 -1.7115 0.48768
            CHANNELS 3 Zrotation Xrotation Yrotation
            JOINT lHand
            {
              OFFSET 22.5879 0.773209 7.07136
              CHANNELS 3 Zrotation Xrotation Yrotation
              JOINT lThumb1
              {
                OFFSET 1.2192 -0.487915 3.41376
                CHANNELS 3 Zrotation Xrotation Yrotation
                JOINT lThumb2
                {
                  OFFSET 3.37035 -0.52449 3.41376
                  CHANNELS 3 Zrotation Xrotation Yrotation
                  End Site
                  {
                    OFFSET 1.78271 -1.18214 1.43049
                  }
                }
              }
              JOINT lIndex1
              {
                OFFSET 7.75947 0.938293 5.60832
                CHANNELS 3 Zrotation Xrotation Yrotation
                JOINT lIndex2
                {
                  OFFSET 2.54057 -0.884171 1.56538
                  CHANNELS 3 Zrotation Xrotation Yrotation
                  End Site
                  {
                    OFFSET 1.62519 -0.234802 1.16502
                  }
                }
              }
              JOINT lMid1
              {
                OFFSET 8.24714 1.18213 3.41376
                CHANNELS 3 Zrotation Xrotation Yrotation
                JOINT lMid2
                {
                  OFFSET 3.10165 -0.590103 1.0647
                  CHANNELS 3 Zrotation Xrotation Yrotation
                  End Site
                  {
                    OFFSET 2.48547 -0.328903 0.83742
                  }
                }
              }
              JOINT lRing1
              {
                OFFSET 8.82822 0.546677 1.51678
                CHANNELS 3 Zrotation Xrotation Yrotation
                JOINT lRing2
                {
                  OFFSET 2.60934 -0.819778 -0.0198488
                  CHANNELS 3 Zrotation Xrotation Yrotation
                  End Site
                  {
                    OFFSET 2.33842 -0.294052 0.168128
                  }
                }
              }
              JOINT lPinky1
              {
                OFFSET 8.27202 -0.0477905 -0.4584
                CHANNELS 3 Zrotation Xrotation Yrotation
                JOINT lPinky2
                {
                  OFFSET 1.82734 -0.647385 -0.700984
                  CHANNELS 3 Zrotation Xrotation Yrotation
                  End Site
                  {
                    OFFSET 1.69225 -0.51767 -0.607171
                  }
                }
              }
            }
          }
        }
      }
    }
  }
  JOINT rButtock
  {
    OFFSET -8.77824 4.35084 1.2192
    CHANNELS 3 Zrotation Xrotation Yrotation
    JOINT rThigh
    {
      OFFSET 0 -1.70687 -2.19456
      CHANNELS 3 Zrotation Xrotation Yrotation
      JOINT rShin
      {
        OFFSET 0 -36.8199 0.73152
        CHANNELS 3 Zrotation Xrotation Yrotation
        JOINT rFoot
        {
          OFFSET 0.73152 -45.1104 -5.12064
          CHANNELS 3 Zrotation Xrotation Yrotation
          End Site
          {
            OFFSET -1.1221 -3.69964 12.103
          }
        }
      }
    }
  }
  JOINT lButtock
  {
    OFFSET 8.77824 4.35084 1.2192
    CHANNELS 3 Zrotation Xrotation Yrotation
    JOINT lThigh
    {
      OFFSET 0 -1.70687 -2.19456
      CHANNELS 3 Zrotation Xrotation Yrotation
      JOINT lShin
      {
        OFFSET 0 -36.8199 0.73152
        CHANNELS 3 Zrotation Xrotation Yrotation
        JOINT lFoot
        {
          OFFSET -0.73152 -45.1104 -5.12064
          CHANNELS 3 Zrotation Xrotation Yrotation
          End Site
          {
            OFFSET 1.1221 -3.69964 12.103
          }
        }
      }
    }
  }
}
MOTION
Frames:	9
Frame Time:	0.00833333
243.757 84.7658 41.2425 0.0 0.0 0.0 -0.385195 -0.00168814 -0.0109958 -0.106234 -0.00256714 -0.0184048 4.82613e-15 0.0 -6.83323e-17 1.44864e-14 3.18055e-15 -2.01891e-16 -0.0 0.0 0.0 -0.0 0.0 0.0 2.48353e-15 -5.82377e-18 1.49089e-16 5.12722e-14 4.96962e-17 0.0 8.70329e-13 -2.65179e-13 -2.54444e-14 9.97208e-12 2.37001e-13 -1.43125e-13 2.35172e-11 -6.25904e-14 -3.40319e-13 4.05978e-11 -1.04958e-13 -5.82837e-13 2.35198e-11 -6.32135e-14 -3.4668e-13 7.73091 5.47488 0.417314 2.3517e-11 -6.2816e-14 -3.33958e-13 2.90554 0.965183 0.102902 2.35152e-11 -6.29153e-14 -3.33163e-13 10.2786 0.731801 0.0259123 2.35123e-11 -6.04305e-14 -3.21236e-13 2.22167 -0.733487 -0.20892 2.28746e-15 -5.82377e-18 -1.98785e-16 4.9341e-14 -6.83322e-17 -1.19271e-15 8.71671e-13 2.54842e-13 -1.90833e-14 9.96751e-12 -2.84759e-13 -1.17681e-13 2.35183e-11 -6.45086e-14 -3.27597e-13 4.0628e-11 -1.11319e-13 -5.61368e-13 2.3515e-11 -6.48038e-14 -3.21236e-13 -7.73091 5.47488 -0.417314 2.35188e-11 -6.47044e-14 -3.27597e-13 -2.90554 0.965183 -0.102902 2.35109e-11 -6.45056e-14 -3.27597e-13 -10.2786 0.731801 -0.0259123 2.35254e-11 -6.2816e-14 -3.40319e-13 -2.22167 -0.733487 0.20892 -2.03217e-16 0.0 -3.88251e-19 0.221631 -2.58356 -0.0280805 -0.00748944 -0.872628 -0.0651388 -0.513091 3.45577 0.129344 2.03217e-16 0.0 3.88251e-19 -0.807794 -4.07084 0.0653919 0.00325589 1.82138 0.0244331 0.517731 2.24911 -0.105183
239.739 83.6278 33.9869 -116.007 -83.6073 123.128 0.91246 -1.54551 0.255501 0.501972 -0.453541 0.0221005 -1.65841 0.232587 -1.27727 2.60867 -2.77988 -1.89433 -0.0 0.0 0.0 -0.0 0.0 0.0 -1.19133e-14 5.55394e-13 -4.28668e-15 20.6871 3.92978 0.190835 -3.24398 -1.32306 5.21994 0.0287142 3.76033 0.524376 -2.89458e-12 -1.26987e-10 3.31657e-10 -1.09535e-12 -2.17699e-10 5.72369e-10 -2.89228e-12 -1.26988e-10 3.31651e-10 7.73091 5.47488 0.417314 -2.8951e-12 -1.26987e-10 3.31662e-10 2.90554 0.965183 0.102902 -2.89605e-12 -1.26988e-10 3.31662e-10 10.2786 0.731801 0.0259123 -2.89883e-12 -1.26985e-10 3.31671e-10 2.22167 -0.733487 -0.20892 -1.21071e-14 5.55394e-13 -4.68231e-15 -22.7877 2.36369 0.0918093 3.2241 -1.31069 -5.19084 -0.170119 9.17129 -1.23011 2.35109e-10 -1.18172e-10 -1.19416e-10 4.02147e-10 -2.0427e-10 -2.11482e-10 2.35108e-10 -1.1817e-10 -1.1941e-10 -7.73091 5.47488 -0.417314 2.3511e-10 -1.1817e-10 -1.19418e-10 -2.90554 0.965183 -0.102902 2.35101e-10 -1.18169e-10 -1.19416e-10 -10.2786 0.731801 -0.0259123 2.35114e-10 -1.18168e-10 -1.19427e-10 -2.22167 -0.733487 0.20892 -2.03217e-16 0.0 -3.88251e-19 1.85964 -5.11756 0.632103 -0.00772894 3.15661 0.0108736 -0.643511 1.19923 -2.48526 2.03217e-16 0.0 3.88251e-19 1.39528 -5.5278 -1.19335 -0.000180919 4.6661 -0.0310626 0.548596 -0.338382 1.10661
239.744 83.625 33.9494 -115.339 -83.6301 122.475 2.29546 -3.18106 0.544897 1.16396 -0.918464 0.06711 -3.40067 0.469172 -2.63614 5.15115 -5.71723 -3.92746 -0.0 0.0 0.0 -0.0 0.0 0.0 -3.24276e-14 1.34557e-12 -9.77461e-15 42.5099 8.0754 0.404599 -6.41149 -2.68463 10.7456 -0.0163851 7.73217 1.08595 -7.97776e-12 -2.7277e-10 7.24872e-10 -5.28666e-12 -4.67401e-10 1.25071e-09 -7.9758e-12 -2.72771e-10 7.24866e-10 7.73091 5.47488 0.417314 -7.97861e-12 -2.7277e-10 7.24876e-10 2.90554 0.965183 0.102902 -7.97875e-12 -2.7277e-10 7.24874e-10 10.2786 0.731801 0.0259123 -7.98128e-12 -2.72768e-10 7.24881e-10 2.22167 -0.733487 -0.20892 -3.26206e-14 1.34557e-12 -1.0225e-14 -46.8966 4.86288 0.173037 6.37537 -2.66042 -10.687 0.10025 18.8556 -2.64033 4.89914e-10 -2.46144e-10 -2.19569e-10 8.38678e-10 -4.25931e-10 -3.90881e-10 4.89917e-10 -2.46139e-10 -2.19565e-10 -7.73091 5.47488 -0.417314 4.89917e-10 -2.46138e-10 -2.19574e-10 -2.90554 0.965183 -0.102902 4.89906e-10 -2.46137e-10 -2.1957e-10 -10.2786 0.731801 -0.0259123 4.89918e-10 -2.46136e-10 -2.19579e-10 -2.22167 -0.733487 0.20892 -2.03217e-16 0.0 -3.88251e-19 3.6523 -7.79281 1.33533 -0.0196789 7.41389 0.0918975 -1.00477 -1.17698 -5.24887 2.03217e-16 0.0 3.88251e-19 3.65134 -7.06205 -2.53087 0.00224471 7.6718 -0.0902817 0.700247 -3.06859 2.39039
239.748 83.6225 33.9253 -115.293 -83.7013 122.443 3.55097 -4.63276 0.7908 1.7203 -1.35549 0.103138 -4.94415 0.696373 -3.83207 7.2706 -8.30299 -5.73662 -0.0 0.0 0.0 -0.0 0.0 0.0 -4.07069e-14 1.66619e-12 -1.31582e-14 61.9814 11.7888 0.583466 -9.01736 -3.8376 15.6917 -0.123778 11.2772 1.60065 -5.5718e-11 -3.80836e-10 9.95652e-10 -8.44816e-11 -6.52886e-10 1.71827e-09 -5.57165e-11 -3.80837e-10 9.95646e-10 7.73091 5.47488 0.417314 -5.57193e-11 -3.80837e-10 9.95655e-10 2.90554 0.965183 0.102902 -5.57185e-11 -3.80837e-10 9.95652e-10 10.2786 0.731801 0.0259123 -5.5721e-11 -3.80835e-10 9.95655e-10 2.22167 -0.733487 -0.20892 -4.08961e-14 1.66619e-12 -1.36494e-14 -68.386 7.09098 0.277315 8.96825 -3.80317 -15.6037 0.797522 27.4598 -4.10646 6.58289e-10 -3.54388e-10 -3.57593e-10 1.12518e-09 -6.12586e-10 -6.33322e-10 6.58294e-10 -3.54382e-10 -3.57588e-10 -7.73091 5.47488 -0.417314 6.58293e-10 -3.5438e-10 -3.57599e-10 -2.90554 0.965183 -0.102902 6.58281e-10 -3.54378e-10 -3.57594e-10 -10.2786 0.731801 -0.0259123 6.58292e-10 -3.54378e-10 -3.576e-10 -2.22167 -0.733487 0.20892 -2.03217e-16 0.0 -3.88251e-19 5.31335 -10.1806 1.97598 -0.0406822 11.215 0.166004 -1.52084 -3.2805 -7.7251 2.03217e-16 0.0 3.88251e-19 5.60757 -8.42761 -3.73423 0.00970844 10.3555 -0.144067 0.939495 -5.50307 3.54633
239.736 83.6214 33.8719 -114.668 -83.6715 121.833 4.45527 -5.62527 0.925606 2.01106 -1.72276 0.116685 -6.01106 0.901361 -4.62047 8.73599 -10.0463 -6.93298 -0.0 0.0 0.0 -0.0 0.0 0.0 -1.83988e-14 8.1293e-13 -1.1281e-14 75.6371 14.4223 0.663567 -10.7189 -4.59407 19.1585 -0.237948 13.7586 1.97208 -2.10101e-10 -3.94611e-10 9.60343e-10 -3.51186e-10 -6.77824e-10 1.65889e-09 -2.101e-10 -3.94611e-10 9.60337e-10 7.73091 5.47488 0.417314 -2.10103e-10 -3.94612e-10 9.60346e-10 2.90554 0.965183 0.102902 -2.10101e-10 -3.94611e-10 9.60341e-10 10.2786 0.731801 0.0259123 -2.10104e-10 -3.94609e-10 9.60343e-10 2.22167 -0.733487 -0.20892 -1.85764e-14 8.1293e-13 -1.1778e-14 -83.3171 8.64134 0.438187 10.6583 -4.55119 -19.0419 1.59791 33.4146 -5.32017 6.10589e-10 -4.13313e-10 -5.90292e-10 1.03663e-09 -7.11725e-10 -1.03337e-09 6.10593e-10 -4.13306e-10 -5.90285e-10 -7.73091 5.47488 -0.417314 6.10593e-10 -4.13305e-10 -5.90298e-10 -2.90554 0.965183 -0.102902 6.10581e-10 -4.13303e-10 -5.90293e-10 -10.2786 0.731801 -0.0259123 6.1059e-10 -4.13303e-10 -5.90298e-10 -2.22167 -0.733487 0.20892 -2.03217e-16 0.0 -3.88251e-19 6.5202 -11.854 2.43992 -0.0613289 13.876 0.219526 -1.99044 -4.73958 -9.46354 2.03217e-16 0.0 3.88251e-19 6.95091 -9.38345 -4.58335 0.0178904 12.2342 -0.182443 1.16594 -7.20886 4.36413
239.725 83.6054 33.8106 -114.584 -83.6278 121.791 4.8587 -5.95216 0.906529 1.90115 -2.0675 0.0996819 -6.41862 1.09156 -4.82909 9.50661 -10.5945 -7.22056 -0.0 0.0 0.0 -0.0 0.0 0.0 6.23193e-14 -2.26783e-12 -4.66057e-15 81.2256 15.555 0.533868 -11.3711 -4.88388 20.5417 -0.29277 14.7555 2.12444 -5.44345e-10 -2.09871e-10 3.40015e-10 -9.34817e-10 -3.63984e-10 5.91897e-10 -5.44344e-10 -2.0987e-10 3.40008e-10 7.73091 5.47488 0.417314 -5.44348e-10 -2.09872e-10 3.40019e-10 2.90554 0.965183 0.102902 -5.44344e-10 -2.0987e-10 3.40011e-10 10.2786 0.731801 0.0259123 -5.44348e-10 -2.09868e-10 3.40013e-10 2.22167 -0.733487 -0.20892 6.21683e-14 -2.26783e-12 -5.10628e-15 -89.0424 9.2775 0.738254 11.3006 -4.83489 -20.4026 1.98839 35.6754 -5.84208 1.57952e-10 -3.82115e-10 -1.00511e-09 2.44939e-10 -6.50738e-10 -1.73682e-09 1.57951e-10 -3.8211e-10 -1.0051e-09 -7.73091 5.47488 -0.417314 1.57954e-10 -3.82112e-10 -1.00511e-09 -2.90554 0.965183 -0.102902 1.57946e-10 -3.82111e-10 -1.00511e-09 -10.2786 0.731801 -0.0259123 1.57955e-10 -3.82109e-10 -1.00511e-09 -2.22167 -0.733487 0.20892 -2.03217e-16 0.0 -3.88251e-19 7.03906 -12.5321 2.65229 -0.0708111 14.9443 0.241708 -2.20426 -5.32688 -10.1562 2.03217e-16 0.0 3.88251e-19 7.50032 -9.77369 -4.92577 0.0215717 12.9888 -0.19806 1.27014 -7.90641 4.69161
239.707 83.593 33.7595 -114.705 -83.6097 121.938 4.90227 -5.80472 0.777077 1.50594 -2.39256 0.0607977 -6.35918 1.27084 -4.62395 9.81356 -10.2967 -6.85097 -0.0 0.0 0.0 -0.0 0.0 0.0 1.84016e-13 -6.91184e-12 5.47279e-15 81.054 15.6152 0.255575 -11.322 -4.86531 20.4312 -0.288336 14.6926 2.11464 -1.00561e-09 1.13499e-10 -6.90732e-10 -1.74223e-09 1.86412e-10 -1.18196e-09 -1.00561e-09 1.13501e-10 -6.9074e-10 7.73091 5.47488 0.417314 -1.00561e-09 1.13497e-10 -6.90725e-10 2.90554 0.965183 0.102902 -1.0056e-09 1.13501e-10 -6.90738e-10 10.2786 0.731801 0.0259123 -1.00561e-09 1.13504e-10 -6.90733e-10 2.22167 -0.733487 -0.20892 1.83903e-13 -6.91184e-12 5.11871e-15 -88.1883 9.25872 1.13402 11.2415 -4.81112 -20.2739 1.92799 35.3128 -5.75805 -5.79046e-10 -2.87547e-10 -1.54765e-09 -1.04051e-09 -4.77165e-10 -2.65304e-09 -5.79056e-10 -2.87545e-10 -1.54763e-09 -7.73091 5.47488 -0.417314 -5.79047e-10 -2.87551e-10 -1.54765e-09 -2.90554 0.965183 -0.102902 -5.79051e-10 -2.87551e-10 -1.54765e-09 -10.2786 0.731801 -0.0259123 -5.79041e-10 -2.87549e-10 -1.54765e-09 -2.22167 -0.733487 0.20892 -2.03217e-16 0.0 -3.88251e-19 7.05216 -12.5001 2.68071 -0.0697137 14.8748 0.240669 -2.19018 -5.30074 -10.0949 2.03217e-16 0.0 3.88251e-19 7.4971 -9.76199 -4.90332 0.0207353 12.9403 -0.197054 1.26212 -7.88609 4.66409
239.687 83.5803 33.717 -114.624 -83.6341 121.884 4.79574 -5.50432 0.598442 1.0414 -2.58958 0.0116355 -6.11768 1.42123 -4.26784 9.85974 -9.72376 -6.24378 -0.0 0.0 0.0 -0.0 0.0 0.0 2.97165e-13 -1.12467e-11 2.12063e-14 78.4993 15.2287 0.0205744 -10.9874 -4.72029 19.7125 -0.259802 14.203 2.03943 -1.46877e-09 3.85909e-10 -1.63525e-09 -2.5521e-09 6.49007e-10 -2.80676e-09 -1.46878e-09 3.85912e-10 -1.63526e-09 7.73091 5.47488 0.417314 -1.46878e-09 3.85906e-10 -1.63525e-09 2.90554 0.965183 0.102902 -1.46877e-09 3.85911e-10 -1.63526e-09 10.2786 0.731801 0.0259123 -1.46878e-09 3.85915e-10 -1.63525e-09 2.22167 -0.733487 -0.20892 2.97086e-13 -1.12467e-11 2.09469e-14 -84.7267 8.92236 1.46973 10.893 -4.6587 -19.5317 1.69608 33.9436 -5.44345 -1.2659e-09 -2.01355e-10 -2.06196e-09 -2.23859e-09 -3.18725e-10 -3.52196e-09 -1.26592e-09 -2.01356e-10 -2.06193e-09 -7.73091 5.47488 -0.417314 -1.26591e-09 -2.01366e-10 -2.06196e-09 -2.90554 0.965183 -0.102902 -1.26591e-09 -2.01367e-10 -2.06196e-09 -10.2786 0.731801 -0.0259123 -1.2659e-09 -2.01363e-10 -2.06197e-09 -2.22167 -0.733487 0.20892 -2.03217e-16 0.0 -3.88251e-19 6.85431 -12.1814 2.62125 -0.0643954 14.3444 0.230129 -2.08204 -5.02887 -9.72089 2.03217e-16 0.0 3.88251e-19 7.26849 -9.58857 -4.73483 0.0182113 12.566 -0.18931 1.20902 -7.57259 4.49674
239.669 83.5689 33.6662 -114.48 -83.6306 121.775 4.74589 -5.37244 0.431491 0.72409 -2.55017 -0.036173 -5.97538 1.52454 -4.02363 9.86557 -9.45035 -5.81454 -0.0 0.0 0.0 -0.0 0.0 0.0 3.52238e-13 -1.33999e-11 4.46272e-14 76.9503 15.0225 0.0177634 -10.7796 -4.62882 19.2718 -0.243685 13.9194 1.99607 -1.80875e-09 4.17769e-10 -1.99691e-09 -3.14309e-09 6.99448e-10 -3.42656e-09 -1.80875e-09 4.17772e-10 -1.99692e-09 7.73091 5.47488 0.417314 -1.80875e-09 4.17766e-10 -1.9969e-09 2.90554 0.965183 0.102902 -1.80874e-09 4.17772e-10 -1.99692e-09 10.2786 0.731801 0.0259123 -1.80875e-09 4.17775e-10 -1.99691e-09 2.22167 -0.733487 -0.20892 3.52179e-13 -1.33999e-11 4.44284e-14 -82.6403 8.60617 1.59143 10.664 -4.55476 -19.0526 1.5724 33.1847 -5.27371 -1.56811e-09 -1.95283e-10 -2.3921e-09 -2.76815e-09 -3.03139e-10 -4.08349e-09 -1.56814e-09 -1.95286e-10 -2.39207e-09 -7.73091 5.47488 -0.417314 -1.56812e-09 -1.95298e-10 -2.3921e-09 -2.90554 0.965183 -0.102902 -1.56812e-09 -1.95299e-10 -2.3921e-09 -10.2786 0.731801 -0.0259123 -1.56811e-09 -1.95294e-10 -2.39211e-09 -2.22167 -0.733487 0.20892 -2.03217e-16 0.0 -3.88251e-19 6.7428 -11.9993 2.57057 -0.0614434 14.0297 0.22389 -2.01731 -4.87822 -9.47563 2.03217e-16 0.0 3.88251e-19 7.14039 -9.49345 -4.63944 0.0169355 12.3431 -0.184742 1.18012 -7.39035 4.40525
